<svg width="40" height="39" viewBox="0 0 40 39" fill="none" xmlns="http://www.w3.org/2000/svg">
<path d="M30 20.25V36.3214C30 37.8002 28.7402 39 27.1875 39H2.8125C1.25977 39 0 37.8002 0 36.3214V20.25C0 18.7712 1.25977 17.5714 2.8125 17.5714H7.96875L8.68945 15.7355C9.09961 14.692 10.1484 14 11.3203 14H18.6738C19.8457 14 20.8945 14.692 21.3047 15.7355L22.0312 17.5714H27.1875C28.7402 17.5714 30 18.7712 30 20.25ZM22.0312 28.2857C22.0312 24.5915 18.8789 21.5893 15 21.5893C11.1211 21.5893 7.96875 24.5915 7.96875 28.2857C7.96875 31.9799 11.1211 34.9821 15 34.9821C18.8789 34.9821 22.0312 31.9799 22.0312 28.2857ZM20.1562 28.2857C20.1562 30.9922 17.8418 33.1964 15 33.1964C12.1582 33.1964 9.84375 30.9922 9.84375 28.2857C9.84375 25.5792 12.1582 23.375 15 23.375C17.8418 23.375 20.1562 25.5792 20.1562 28.2857Z" fill="#8F43B4"/>
<path d="M38.9286 5.89286H34.1071V1.07143C34.1071 0.479799 33.6273 0 33.0357 0H31.9643C31.3727 0 30.8929 0.479799 30.8929 1.07143V5.89286H26.0714C25.4798 5.89286 25 6.37266 25 6.96429V8.03571C25 8.62734 25.4798 9.10714 26.0714 9.10714H30.8929V13.9286C30.8929 14.5202 31.3727 15 31.9643 15H33.0357C33.6273 15 34.1071 14.5202 34.1071 13.9286V9.10714H38.9286C39.5202 9.10714 40 8.62734 40 8.03571V6.96429C40 6.37266 39.5202 5.89286 38.9286 5.89286Z" fill="#8F43B4"/>
</svg>
