<svg width="30" height="25" viewBox="0 0 30 25" fill="none" xmlns="http://www.w3.org/2000/svg">
<path d="M10.5004 12.4997C13.8146 12.4997 16.5006 9.70192 16.5006 6.24985C16.5006 2.79779 13.8146 0 10.5004 0C7.18622 0 4.50018 2.79779 4.50018 6.24985C4.50018 9.70192 7.18622 12.4997 10.5004 12.4997ZM14.7006 14.0622H13.9177C12.8771 14.5602 11.7192 14.8434 10.5004 14.8434C9.28161 14.8434 8.12844 14.5602 7.08309 14.0622H6.30025C2.82199 14.0622 0 17.0015 0 20.6245V22.6557C0 23.9496 1.00785 24.9994 2.25009 24.9994H15.1365C15.024 24.6674 14.9771 24.3158 15.0146 23.9594L15.3334 20.9858L15.3897 20.4439L15.76 20.0581L19.3836 16.2838C18.2351 14.9313 16.571 14.0622 14.7006 14.0622ZM16.8241 21.1567L16.5053 24.1352C16.4538 24.6332 16.8569 25.0531 17.3304 24.9945L20.1852 24.6625L26.6495 17.9293L23.2884 14.4284L16.8241 21.1567ZM29.673 13.1296L27.8964 11.279C27.4604 10.8249 26.7479 10.8249 26.312 11.279L24.54 13.1247L24.3478 13.3249L27.7136 16.8258L29.673 14.7848C30.109 14.3258 30.109 13.5885 29.673 13.1296Z" fill="#8F43B4"/>
</svg>
