<svg width="26" height="26" viewBox="0 0 26 26" fill="none" xmlns="http://www.w3.org/2000/svg">
<path d="M25.6679 16.1242L23.3352 14.8347C23.5707 13.6185 23.5707 12.371 23.3352 11.1548L25.6679 9.86533C25.9362 9.71856 26.0567 9.41453 25.9691 9.13147C25.3613 7.26534 24.3264 5.57745 22.9738 4.17261C22.7658 3.9577 22.4263 3.90528 22.1634 4.05205L19.8308 5.34156C18.8506 4.53431 17.7226 3.91052 16.5015 3.50165V0.927868C16.5015 0.634321 16.288 0.377467 15.9868 0.314564C13.9772 -0.115273 11.9183 -0.0943054 10.0073 0.314564C9.7061 0.377467 9.49255 0.634321 9.49255 0.927868V3.50689C8.27693 3.921 7.14893 4.54479 6.16329 5.3468L3.8361 4.05729C3.56779 3.91052 3.23376 3.9577 3.02569 4.17786C1.67318 5.57745 0.63826 7.26534 0.0304517 9.13671C-0.062636 9.41977 0.0633062 9.7238 0.331618 9.87058L2.66429 11.1601C2.42883 12.3762 2.42883 13.6238 2.66429 14.8399L0.331618 16.1294C0.0633062 16.2762 -0.0571603 16.5802 0.0304517 16.8633C0.63826 18.7294 1.67318 20.4173 3.02569 21.8221C3.23376 22.0371 3.57326 22.0895 3.8361 21.9427L6.16877 20.6532C7.14893 21.4605 8.27693 22.0842 9.49802 22.4931V25.0721C9.49802 25.3657 9.71158 25.6225 10.0127 25.6854C12.0223 26.1153 14.0812 26.0943 15.9923 25.6854C16.2934 25.6225 16.507 25.3657 16.507 25.0721V22.4931C17.7226 22.079 18.8506 21.4552 19.8362 20.6532L22.1689 21.9427C22.4372 22.0895 22.7712 22.0423 22.9793 21.8221C24.3318 20.4226 25.3667 18.7347 25.9746 16.8633C26.0567 16.575 25.9362 16.271 25.6679 16.1242ZM12.997 17.1883C10.5822 17.1883 8.61643 15.3064 8.61643 12.9948C8.61643 10.6831 10.5822 8.80123 12.997 8.80123C15.4118 8.80123 17.3776 10.6831 17.3776 12.9948C17.3776 15.3064 15.4118 17.1883 12.997 17.1883Z" fill="#8F43B4"/>
</svg>
