<svg width="28" height="25" viewBox="0 0 28 25" fill="none" xmlns="http://www.w3.org/2000/svg">
<path d="M19.5708 4.05841L23.9556 8.46357C24.1403 8.64915 24.1403 8.95194 23.9556 9.13753L13.3389 19.8037L8.82778 20.3067C8.225 20.3751 7.71458 19.8623 7.78264 19.2567L8.28333 14.7246L18.9 4.05841C19.0847 3.87283 19.3861 3.87283 19.5708 4.05841ZM27.4458 2.94003L25.0736 0.556749C24.3347 -0.185583 23.134 -0.185583 22.3903 0.556749L20.6694 2.2856C20.4847 2.47119 20.4847 2.77398 20.6694 2.95956L25.0542 7.36472C25.2389 7.5503 25.5403 7.5503 25.725 7.36472L27.4458 5.63587C28.1847 4.88865 28.1847 3.68236 27.4458 2.94003ZM18.6667 16.9027V21.8744H3.11111V6.24634H14.2819C14.4375 6.24634 14.5833 6.18285 14.6951 6.07541L16.6396 4.1219C17.009 3.75073 16.7465 3.12073 16.2264 3.12073H2.33333C1.04514 3.12073 0 4.17074 0 5.46493V22.6558C0 23.95 1.04514 25 2.33333 25H19.4444C20.7326 25 21.7778 23.95 21.7778 22.6558V14.9492C21.7778 14.4266 21.1507 14.1678 20.7812 14.5341L18.8368 16.4876C18.7299 16.5999 18.6667 16.7464 18.6667 16.9027Z" fill="#8F43B4"/>
</svg>

