<svg width="49" height="10" viewBox="0 0 49 10" fill="none" xmlns="http://www.w3.org/2000/svg">
<path d="M41.2939 4.6748C41.2939 5.37142 41.1768 5.98014 40.9424 6.50098C40.708 7.01855 40.376 7.41406 39.9463 7.6875C39.5166 7.96094 39.0153 8.09766 38.4424 8.09766C37.8825 8.09766 37.3861 7.96094 36.9531 7.6875C36.5202 7.41081 36.1833 7.01855 35.9424 6.51074C35.7048 5.99967 35.5827 5.40885 35.5762 4.73828V4.22559C35.5762 3.54199 35.695 2.93815 35.9326 2.41406C36.1702 1.88997 36.5055 1.48958 36.9385 1.21289C37.3747 0.932943 37.8727 0.792969 38.4326 0.792969C39.0023 0.792969 39.5036 0.931315 39.9365 1.20801C40.3727 1.48145 40.708 1.88021 40.9424 2.4043C41.1768 2.92513 41.2939 3.53223 41.2939 4.22559V4.6748ZM40.3613 4.21582C40.3613 3.37272 40.1921 2.72656 39.8535 2.27734C39.515 1.82487 39.0413 1.59863 38.4326 1.59863C37.8402 1.59863 37.373 1.82487 37.0312 2.27734C36.6927 2.72656 36.5186 3.35156 36.5088 4.15234V4.6748C36.5088 5.49186 36.6797 6.13477 37.0215 6.60352C37.3665 7.06901 37.8402 7.30176 38.4424 7.30176C39.0479 7.30176 39.5166 7.08203 39.8486 6.64258C40.1807 6.19987 40.3516 5.56673 40.3613 4.74316V4.21582ZM43.0029 8V3.41504H42.168V2.7168H43.0029V2.1748C43.0029 1.6084 43.1543 1.17057 43.457 0.861328C43.7598 0.552083 44.1878 0.397461 44.7412 0.397461C44.9495 0.397461 45.1562 0.42513 45.3613 0.480469L45.3125 1.21289C45.1595 1.18359 44.9967 1.16895 44.8242 1.16895C44.5312 1.16895 44.305 1.25521 44.1455 1.42773C43.986 1.59701 43.9062 1.84115 43.9062 2.16016V2.7168H45.0342V3.41504H43.9062V8H43.0029ZM46.4795 8V3.41504H45.6445V2.7168H46.4795V2.1748C46.4795 1.6084 46.6309 1.17057 46.9336 0.861328C47.2363 0.552083 47.6644 0.397461 48.2178 0.397461C48.4261 0.397461 48.6328 0.42513 48.8379 0.480469L48.7891 1.21289C48.6361 1.18359 48.4733 1.16895 48.3008 1.16895C48.0078 1.16895 47.7816 1.25521 47.6221 1.42773C47.4626 1.59701 47.3828 1.84115 47.3828 2.16016V2.7168H48.5107V3.41504H47.3828V8H46.4795Z" fill="#9A9A9A"/>
<rect x="0.5" y="0.5" width="26" height="7.63751" rx="3.81876" fill="white" stroke="#9A9A9A"/>
<rect x="0.5" y="0.5" width="14.75" height="8.06404" rx="4.03202" fill="#A6A6A6" stroke="#9A9A9A"/>
</svg>
