<svg width="47" height="10" viewBox="0 0 47 10" fill="none" xmlns="http://www.w3.org/2000/svg">
<path d="M41.2939 5.6748C41.2939 6.37142 41.1768 6.98014 40.9424 7.50098C40.708 8.01855 40.376 8.41406 39.9463 8.6875C39.5166 8.96094 39.0153 9.09766 38.4424 9.09766C37.8825 9.09766 37.3861 8.96094 36.9531 8.6875C36.5202 8.41081 36.1833 8.01855 35.9424 7.51074C35.7048 6.99967 35.5827 6.40885 35.5762 5.73828V5.22559C35.5762 4.54199 35.695 3.93815 35.9326 3.41406C36.1702 2.88997 36.5055 2.48958 36.9385 2.21289C37.3747 1.93294 37.8727 1.79297 38.4326 1.79297C39.0023 1.79297 39.5036 1.93132 39.9365 2.20801C40.3727 2.48145 40.708 2.88021 40.9424 3.4043C41.1768 3.92513 41.2939 4.53223 41.2939 5.22559V5.6748ZM40.3613 5.21582C40.3613 4.37272 40.1921 3.72656 39.8535 3.27734C39.515 2.82487 39.0413 2.59863 38.4326 2.59863C37.8402 2.59863 37.373 2.82487 37.0312 3.27734C36.6927 3.72656 36.5186 4.35156 36.5088 5.15234V5.6748C36.5088 6.49186 36.6797 7.13477 37.0215 7.60352C37.3665 8.06901 37.8402 8.30176 38.4424 8.30176C39.0479 8.30176 39.5166 8.08203 39.8486 7.64258C40.1807 7.19987 40.3516 6.56673 40.3613 5.74316V5.21582ZM43.4131 3.7168L43.4424 4.38086C43.846 3.87305 44.3734 3.61914 45.0244 3.61914C46.141 3.61914 46.7041 4.24902 46.7139 5.50879V9H45.8105V5.50391C45.8073 5.12305 45.7194 4.84147 45.5469 4.65918C45.3776 4.47689 45.1123 4.38574 44.751 4.38574C44.458 4.38574 44.2008 4.46387 43.9795 4.62012C43.7581 4.77637 43.5856 4.98145 43.4619 5.23535V9H42.5586V3.7168H43.4131Z" fill="#A8D8EC"/>
<rect x="0.5" y="0.5" width="26" height="7.63748" rx="3.81874" fill="white" stroke="#A8D8EC"/>
<rect x="11.5" y="0.5" width="14.75" height="8.06406" rx="4.03203" fill="#A8D8EC" stroke="#A8D8EC"/>
</svg>
