<svg width="24" height="22" viewBox="0 0 24 22" fill="none" xmlns="http://www.w3.org/2000/svg">
<path d="M17.4714 11.7928H12.8345V16.2888C12.8345 16.7834 12.4172 17.188 11.9071 17.188C11.3971 17.188 10.9798 16.7834 10.9798 16.2888V11.7928H6.34285C5.83279 11.7928 5.41547 11.3881 5.41547 10.8936C5.41547 10.399 5.83279 9.99436 6.34285 9.99436H10.9798V5.49831C10.9798 5.00375 11.3971 4.59911 11.9071 4.59911C12.4172 4.59911 12.8345 5.00375 12.8345 5.49831V9.99436H17.4714C17.9815 9.99436 18.3988 10.399 18.3988 10.8936C18.3988 11.3881 17.9815 11.7928 17.4714 11.7928Z" fill="black" fill-opacity="0.54"/>
</svg>
