<svg width="66" height="10" viewBox="0 0 66 10" fill="none" xmlns="http://www.w3.org/2000/svg">
<path d="M36.7627 5.2168V8H35.8252V0.890625H38.4473C39.2253 0.890625 39.834 1.08919 40.2734 1.48633C40.7161 1.88346 40.9375 2.40918 40.9375 3.06348C40.9375 3.75358 40.721 4.28581 40.2881 4.66016C39.8584 5.03125 39.2415 5.2168 38.4375 5.2168H36.7627ZM36.7627 4.4502H38.4473C38.9486 4.4502 39.3327 4.33301 39.5996 4.09863C39.8665 3.861 40 3.51921 40 3.07324C40 2.65007 39.8665 2.31152 39.5996 2.05762C39.3327 1.80371 38.9665 1.67188 38.501 1.66211H36.7627V4.4502ZM44.5459 3.52734C44.4092 3.50456 44.2611 3.49316 44.1016 3.49316C43.5091 3.49316 43.1071 3.74544 42.8955 4.25V8H41.9922V2.7168H42.8711L42.8857 3.32715C43.182 2.85514 43.6019 2.61914 44.1455 2.61914C44.3213 2.61914 44.4548 2.64193 44.5459 2.6875V3.52734ZM46.3623 8H45.459V2.7168H46.3623V8ZM45.3857 1.31543C45.3857 1.16895 45.4297 1.04525 45.5176 0.944336C45.6087 0.843424 45.7422 0.792969 45.918 0.792969C46.0938 0.792969 46.2272 0.843424 46.3184 0.944336C46.4095 1.04525 46.4551 1.16895 46.4551 1.31543C46.4551 1.46191 46.4095 1.58398 46.3184 1.68164C46.2272 1.7793 46.0938 1.82812 45.918 1.82812C45.7422 1.82812 45.6087 1.7793 45.5176 1.68164C45.4297 1.58398 45.3857 1.46191 45.3857 1.31543ZM49.5557 6.77441L50.8643 2.7168H51.7871L49.8926 8H49.2041L47.29 2.7168H48.2129L49.5557 6.77441ZM55.8398 8C55.7878 7.89583 55.7454 7.71029 55.7129 7.44336C55.293 7.87956 54.7917 8.09766 54.209 8.09766C53.6882 8.09766 53.2601 7.95117 52.9248 7.6582C52.5928 7.36198 52.4268 6.98763 52.4268 6.53516C52.4268 5.98503 52.6351 5.55859 53.0518 5.25586C53.4717 4.94987 54.0609 4.79688 54.8193 4.79688H55.6982V4.38184C55.6982 4.06608 55.6038 3.81543 55.415 3.62988C55.2262 3.44108 54.9479 3.34668 54.5801 3.34668C54.2578 3.34668 53.9876 3.42806 53.7695 3.59082C53.5514 3.75358 53.4424 3.95052 53.4424 4.18164H52.5342C52.5342 3.91797 52.627 3.66406 52.8125 3.41992C53.0013 3.17253 53.2552 2.97721 53.5742 2.83398C53.8965 2.69076 54.2497 2.61914 54.6338 2.61914C55.2425 2.61914 55.7194 2.77214 56.0645 3.07812C56.4095 3.38086 56.5885 3.79915 56.6016 4.33301V6.76465C56.6016 7.24967 56.6634 7.63542 56.7871 7.92188V8H55.8398ZM54.3408 7.31152C54.624 7.31152 54.8926 7.23828 55.1465 7.0918C55.4004 6.94531 55.5843 6.75488 55.6982 6.52051V5.43652H54.9902C53.8835 5.43652 53.3301 5.76042 53.3301 6.4082C53.3301 6.69141 53.4245 6.91276 53.6133 7.07227C53.8021 7.23177 54.0446 7.31152 54.3408 7.31152ZM59.2432 1.4375V2.7168H60.2295V3.41504H59.2432V6.69141C59.2432 6.90299 59.2871 7.0625 59.375 7.16992C59.4629 7.27409 59.6126 7.32617 59.8242 7.32617C59.9284 7.32617 60.0716 7.30664 60.2539 7.26758V8C60.0163 8.0651 59.7852 8.09766 59.5605 8.09766C59.1569 8.09766 58.8525 7.97559 58.6475 7.73145C58.4424 7.4873 58.3398 7.14062 58.3398 6.69141V3.41504H57.3779V2.7168H58.3398V1.4375H59.2432ZM63.4814 8.09766C62.7653 8.09766 62.1826 7.86328 61.7334 7.39453C61.2842 6.92253 61.0596 6.29264 61.0596 5.50488V5.33887C61.0596 4.81478 61.1589 4.34766 61.3574 3.9375C61.5592 3.52409 61.8392 3.20182 62.1973 2.9707C62.5586 2.73633 62.9492 2.61914 63.3691 2.61914C64.056 2.61914 64.5898 2.84538 64.9707 3.29785C65.3516 3.75033 65.542 4.39811 65.542 5.24121V5.61719H61.9629C61.9759 6.13802 62.1273 6.55957 62.417 6.88184C62.71 7.20085 63.0811 7.36035 63.5303 7.36035C63.8493 7.36035 64.1195 7.29525 64.3408 7.16504C64.5622 7.03483 64.7559 6.8623 64.9219 6.64746L65.4736 7.07715C65.0309 7.75749 64.3669 8.09766 63.4814 8.09766ZM63.3691 3.36133C63.0046 3.36133 62.6986 3.49479 62.4512 3.76172C62.2038 4.02539 62.0508 4.39648 61.9922 4.875H64.6387V4.80664C64.6126 4.34766 64.4889 3.99284 64.2676 3.74219C64.0462 3.48828 63.7467 3.36133 63.3691 3.36133Z" fill="#9A9A9A"/>
<rect x="0.5" y="0.5" width="26" height="7.63751" rx="3.81876" fill="white" stroke="#9A9A9A"/>
<rect x="0.5" y="0.5" width="14.75" height="8.06404" rx="4.03202" fill="#A6A6A6" stroke="#9A9A9A"/>
</svg>
