<svg width="315" height="10" viewBox="0 0 315 10" fill="none" xmlns="http://www.w3.org/2000/svg">
<rect y="1" width="315" height="9" rx="4.5" fill="white"/>
<rect y="1" width="215.817" height="9" rx="4.5" fill="#A8D8EC"/>
<path d="M225.151 4.544C225.519 4.544 225.85 4.616 226.143 4.76C226.436 4.89867 226.666 5.09867 226.831 5.36C226.996 5.62133 227.079 5.92267 227.079 6.264C227.079 6.62667 226.988 6.94667 226.807 7.224C226.626 7.496 226.38 7.70667 226.071 7.856C225.762 8.00533 225.415 8.08 225.031 8.08C224.263 8.08 223.666 7.84 223.239 7.36C222.818 6.88 222.607 6.192 222.607 5.296C222.607 4.66667 222.722 4.13067 222.951 3.688C223.18 3.24 223.5 2.90133 223.911 2.672C224.327 2.43733 224.807 2.32 225.351 2.32C225.639 2.32 225.908 2.352 226.159 2.416C226.415 2.47467 226.636 2.56267 226.823 2.68L226.439 3.464C226.162 3.28267 225.807 3.192 225.375 3.192C224.836 3.192 224.415 3.35733 224.111 3.688C223.807 4.01867 223.655 4.496 223.655 5.12V5.128C223.82 4.936 224.031 4.792 224.287 4.696C224.543 4.59467 224.831 4.544 225.151 4.544ZM224.975 7.264C225.3 7.264 225.564 7.17867 225.767 7.008C225.97 6.832 226.071 6.6 226.071 6.312C226.071 6.01867 225.97 5.78667 225.767 5.616C225.564 5.44533 225.292 5.36 224.951 5.36C224.615 5.36 224.34 5.45067 224.127 5.632C223.919 5.81333 223.815 6.04267 223.815 6.32C223.815 6.592 223.916 6.81867 224.119 7C224.327 7.176 224.612 7.264 224.975 7.264ZM231.967 2.4V3.096L229.791 8H228.679L230.783 3.28H228.583V4.232H227.615V2.4H231.967ZM234.058 5.416C233.658 5.416 233.335 5.27467 233.09 4.992C232.844 4.70933 232.722 4.33867 232.722 3.88C232.722 3.42133 232.844 3.05067 233.09 2.768C233.335 2.48533 233.658 2.344 234.058 2.344C234.458 2.344 234.78 2.48533 235.026 2.768C235.276 3.04533 235.402 3.416 235.402 3.88C235.402 4.344 235.276 4.71733 235.026 5C234.78 5.27733 234.458 5.416 234.058 5.416ZM237.418 2.4H238.202L234.378 8H233.594L237.418 2.4ZM234.058 4.856C234.276 4.856 234.444 4.77067 234.562 4.6C234.684 4.42933 234.746 4.18933 234.746 3.88C234.746 3.57067 234.684 3.33067 234.562 3.16C234.444 2.98933 234.276 2.904 234.058 2.904C233.85 2.904 233.682 2.992 233.554 3.168C233.431 3.33867 233.37 3.576 233.37 3.88C233.37 4.184 233.431 4.424 233.554 4.6C233.682 4.77067 233.85 4.856 234.058 4.856ZM237.73 8.056C237.33 8.056 237.007 7.91467 236.762 7.632C236.516 7.34933 236.394 6.97867 236.394 6.52C236.394 6.06133 236.516 5.69067 236.762 5.408C237.007 5.12533 237.33 4.984 237.73 4.984C238.13 4.984 238.452 5.12533 238.698 5.408C238.948 5.69067 239.074 6.06133 239.074 6.52C239.074 6.97867 238.948 7.34933 238.698 7.632C238.452 7.91467 238.13 8.056 237.73 8.056ZM237.73 7.496C237.943 7.496 238.111 7.41067 238.234 7.24C238.356 7.064 238.418 6.824 238.418 6.52C238.418 6.216 238.356 5.97867 238.234 5.808C238.111 5.632 237.943 5.544 237.73 5.544C237.516 5.544 237.348 5.62933 237.226 5.8C237.103 5.97067 237.042 6.21067 237.042 6.52C237.042 6.82933 237.103 7.06933 237.226 7.24C237.348 7.41067 237.516 7.496 237.73 7.496Z" fill="black" fill-opacity="0.3"/>
</svg>
