<svg width="322" height="10" viewBox="0 0 322 10" fill="none" xmlns="http://www.w3.org/2000/svg">
<rect width="296" height="9.33333" rx="4.66667" fill="#A8D8EC"/>
<path d="M302.788 2.4V8H301.748V3.272H300.564V2.4H302.788ZM306.395 8.08C305.947 8.08 305.547 7.968 305.195 7.744C304.843 7.51467 304.565 7.184 304.363 6.752C304.16 6.31467 304.059 5.79733 304.059 5.2C304.059 4.60267 304.16 4.088 304.363 3.656C304.565 3.21867 304.843 2.888 305.195 2.664C305.547 2.43467 305.947 2.32 306.395 2.32C306.843 2.32 307.243 2.43467 307.595 2.664C307.952 2.888 308.232 3.21867 308.435 3.656C308.637 4.088 308.739 4.60267 308.739 5.2C308.739 5.79733 308.637 6.31467 308.435 6.752C308.232 7.184 307.952 7.51467 307.595 7.744C307.243 7.968 306.843 8.08 306.395 8.08ZM306.395 7.176C306.795 7.176 307.109 7.01067 307.339 6.68C307.573 6.34933 307.691 5.856 307.691 5.2C307.691 4.544 307.573 4.05067 307.339 3.72C307.109 3.38933 306.795 3.224 306.395 3.224C306 3.224 305.685 3.38933 305.451 3.72C305.221 4.05067 305.107 4.544 305.107 5.2C305.107 5.856 305.221 6.34933 305.451 6.68C305.685 7.01067 306 7.176 306.395 7.176ZM311.937 8.08C311.489 8.08 311.089 7.968 310.737 7.744C310.385 7.51467 310.108 7.184 309.905 6.752C309.703 6.31467 309.601 5.79733 309.601 5.2C309.601 4.60267 309.703 4.088 309.905 3.656C310.108 3.21867 310.385 2.888 310.737 2.664C311.089 2.43467 311.489 2.32 311.937 2.32C312.385 2.32 312.785 2.43467 313.137 2.664C313.495 2.888 313.775 3.21867 313.977 3.656C314.18 4.088 314.281 4.60267 314.281 5.2C314.281 5.79733 314.18 6.31467 313.977 6.752C313.775 7.184 313.495 7.51467 313.137 7.744C312.785 7.968 312.385 8.08 311.937 8.08ZM311.937 7.176C312.337 7.176 312.652 7.01067 312.881 6.68C313.116 6.34933 313.233 5.856 313.233 5.2C313.233 4.544 313.116 4.05067 312.881 3.72C312.652 3.38933 312.337 3.224 311.937 3.224C311.543 3.224 311.228 3.38933 310.993 3.72C310.764 4.05067 310.649 4.544 310.649 5.2C310.649 5.856 310.764 6.34933 310.993 6.68C311.228 7.01067 311.543 7.176 311.937 7.176ZM316.392 5.416C315.992 5.416 315.67 5.27467 315.424 4.992C315.179 4.70933 315.056 4.33867 315.056 3.88C315.056 3.42133 315.179 3.05067 315.424 2.768C315.67 2.48533 315.992 2.344 316.392 2.344C316.792 2.344 317.115 2.48533 317.36 2.768C317.611 3.04533 317.736 3.416 317.736 3.88C317.736 4.344 317.611 4.71733 317.36 5C317.115 5.27733 316.792 5.416 316.392 5.416ZM319.752 2.4H320.536L316.712 8H315.928L319.752 2.4ZM316.392 4.856C316.611 4.856 316.779 4.77067 316.896 4.6C317.019 4.42933 317.08 4.18933 317.08 3.88C317.08 3.57067 317.019 3.33067 316.896 3.16C316.779 2.98933 316.611 2.904 316.392 2.904C316.184 2.904 316.016 2.992 315.888 3.168C315.766 3.33867 315.704 3.576 315.704 3.88C315.704 4.184 315.766 4.424 315.888 4.6C316.016 4.77067 316.184 4.856 316.392 4.856ZM320.064 8.056C319.664 8.056 319.342 7.91467 319.096 7.632C318.851 7.34933 318.728 6.97867 318.728 6.52C318.728 6.06133 318.851 5.69067 319.096 5.408C319.342 5.12533 319.664 4.984 320.064 4.984C320.464 4.984 320.787 5.12533 321.032 5.408C321.283 5.69067 321.408 6.06133 321.408 6.52C321.408 6.97867 321.283 7.34933 321.032 7.632C320.787 7.91467 320.464 8.056 320.064 8.056ZM320.064 7.496C320.278 7.496 320.446 7.41067 320.568 7.24C320.691 7.064 320.752 6.824 320.752 6.52C320.752 6.216 320.691 5.97867 320.568 5.808C320.446 5.632 320.278 5.544 320.064 5.544C319.851 5.544 319.683 5.62933 319.56 5.8C319.438 5.97067 319.376 6.21067 319.376 6.52C319.376 6.82933 319.438 7.06933 319.56 7.24C319.683 7.41067 319.851 7.496 320.064 7.496Z" fill="black" fill-opacity="0.3"/>
</svg>
