<svg width="312" height="10" viewBox="0 0 312 10" fill="none" xmlns="http://www.w3.org/2000/svg">
<rect width="311.744" height="9.52941" rx="4.76471" fill="white"/>
<rect width="127" height="10" rx="5" fill="#A8D8EC"/>
<path d="M138.037 3.712C138.554 3.776 138.949 3.952 139.221 4.24C139.493 4.528 139.629 4.888 139.629 5.32C139.629 5.64533 139.546 5.94133 139.381 6.208C139.216 6.47467 138.965 6.688 138.629 6.848C138.298 7.00267 137.893 7.08 137.413 7.08C137.013 7.08 136.626 7.024 136.253 6.912C135.885 6.79467 135.57 6.63467 135.309 6.432L135.757 5.624C135.96 5.79467 136.205 5.93067 136.493 6.032C136.786 6.128 137.088 6.176 137.397 6.176C137.765 6.176 138.053 6.10133 138.261 5.952C138.474 5.79733 138.581 5.58933 138.581 5.328C138.581 5.06667 138.48 4.864 138.277 4.72C138.08 4.57067 137.776 4.496 137.365 4.496H136.853V3.784L138.125 2.272H135.581V1.4H139.397V2.096L138.037 3.712ZM142.814 3.712C143.331 3.776 143.726 3.952 143.998 4.24C144.27 4.528 144.406 4.888 144.406 5.32C144.406 5.64533 144.323 5.94133 144.158 6.208C143.993 6.47467 143.742 6.688 143.406 6.848C143.075 7.00267 142.67 7.08 142.19 7.08C141.79 7.08 141.403 7.024 141.03 6.912C140.662 6.79467 140.347 6.63467 140.086 6.432L140.534 5.624C140.737 5.79467 140.982 5.93067 141.27 6.032C141.563 6.128 141.865 6.176 142.174 6.176C142.542 6.176 142.83 6.10133 143.038 5.952C143.251 5.79733 143.358 5.58933 143.358 5.328C143.358 5.06667 143.257 4.864 143.054 4.72C142.857 4.57067 142.553 4.496 142.142 4.496H141.63V3.784L142.902 2.272H140.358V1.4H144.174V2.096L142.814 3.712ZM146.416 4.416C146.016 4.416 145.694 4.27467 145.448 3.992C145.203 3.70933 145.08 3.33867 145.08 2.88C145.08 2.42133 145.203 2.05067 145.448 1.768C145.694 1.48533 146.016 1.344 146.416 1.344C146.816 1.344 147.139 1.48533 147.384 1.768C147.635 2.04533 147.76 2.416 147.76 2.88C147.76 3.344 147.635 3.71733 147.384 4C147.139 4.27733 146.816 4.416 146.416 4.416ZM149.776 1.4H150.56L146.736 7H145.952L149.776 1.4ZM146.416 3.856C146.635 3.856 146.803 3.77067 146.92 3.6C147.043 3.42933 147.104 3.18933 147.104 2.88C147.104 2.57067 147.043 2.33067 146.92 2.16C146.803 1.98933 146.635 1.904 146.416 1.904C146.208 1.904 146.04 1.992 145.912 2.168C145.79 2.33867 145.728 2.576 145.728 2.88C145.728 3.184 145.79 3.424 145.912 3.6C146.04 3.77067 146.208 3.856 146.416 3.856ZM150.088 7.056C149.688 7.056 149.366 6.91467 149.12 6.632C148.875 6.34933 148.752 5.97867 148.752 5.52C148.752 5.06133 148.875 4.69067 149.12 4.408C149.366 4.12533 149.688 3.984 150.088 3.984C150.488 3.984 150.811 4.12533 151.056 4.408C151.307 4.69067 151.432 5.06133 151.432 5.52C151.432 5.97867 151.307 6.34933 151.056 6.632C150.811 6.91467 150.488 7.056 150.088 7.056ZM150.088 6.496C150.302 6.496 150.47 6.41067 150.592 6.24C150.715 6.064 150.776 5.824 150.776 5.52C150.776 5.216 150.715 4.97867 150.592 4.808C150.47 4.632 150.302 4.544 150.088 4.544C149.875 4.544 149.707 4.62933 149.584 4.8C149.462 4.97067 149.4 5.21067 149.4 5.52C149.4 5.82933 149.462 6.06933 149.584 6.24C149.707 6.41067 149.875 6.496 150.088 6.496Z" fill="black" fill-opacity="0.3"/>
</svg>
