<svg width="97" height="26" viewBox="0 0 97 26" fill="none" xmlns="http://www.w3.org/2000/svg">
<mask id="path-1-inside-1" fill="white">
<path fill-rule="evenodd" clip-rule="evenodd" d="M97 20.5378V21.0028C96.9987 23.217 95.5412 25.1666 93.4177 25.7944C91.2942 26.4222 89.0107 25.5786 87.8055 23.7211C86.6003 21.8636 86.7605 19.4347 88.1992 17.7515C89.6379 16.0684 92.0124 15.5319 94.035 16.4331"/>
</mask>
<path d="M99 20.5378C99 19.4332 98.1046 18.5378 97 18.5378C95.8954 18.5378 95 19.4332 95 20.5378H99ZM97 21.0028L99 21.0039V21.0028H97ZM93.2211 18.26C94.23 18.7095 95.4123 18.256 95.8619 17.247C96.3114 16.2381 95.8579 15.0557 94.849 14.6062L93.2211 18.26ZM95 20.5378V21.0028H99V20.5378H95ZM95 21.0016C94.9992 22.33 94.1248 23.4998 92.8506 23.8765L93.9847 27.7124C96.9575 26.8334 98.9982 24.1039 99 21.0039L95 21.0016ZM92.8506 23.8765C91.5765 24.2532 90.2064 23.747 89.4833 22.6325L86.1277 24.8097C87.8151 27.4103 91.0119 28.5913 93.9847 27.7124L92.8506 23.8765ZM89.4833 22.6325C88.7602 21.5181 88.8563 20.0609 89.7195 19.051L86.6789 16.452C84.6646 18.8085 84.4404 22.2092 86.1277 24.8097L89.4833 22.6325ZM89.7195 19.051C90.5827 18.0411 92.0074 17.7192 93.2211 18.26L94.849 14.6062C92.0173 13.3446 88.6931 14.0956 86.6789 16.452L89.7195 19.051Z" fill="#9A9A9A" mask="url(#path-1-inside-1)"/>
<path d="M32.7627 5.2168V8H31.8252V0.890625H34.4473C35.2253 0.890625 35.834 1.08919 36.2734 1.48633C36.7161 1.88346 36.9375 2.40918 36.9375 3.06348C36.9375 3.75358 36.721 4.28581 36.2881 4.66016C35.8584 5.03125 35.2415 5.2168 34.4375 5.2168H32.7627ZM32.7627 4.4502H34.4473C34.9486 4.4502 35.3327 4.33301 35.5996 4.09863C35.8665 3.861 36 3.51921 36 3.07324C36 2.65007 35.8665 2.31152 35.5996 2.05762C35.3327 1.80371 34.9665 1.67188 34.501 1.66211H32.7627V4.4502ZM41.2539 7.47754C40.9023 7.89095 40.3864 8.09766 39.7061 8.09766C39.1429 8.09766 38.7132 7.9349 38.417 7.60938C38.124 7.2806 37.9759 6.79557 37.9727 6.1543V2.7168H38.876V6.12988C38.876 6.93066 39.2015 7.33105 39.8525 7.33105C40.5426 7.33105 41.0016 7.07389 41.2295 6.55957V2.7168H42.1328V8H41.2734L41.2539 7.47754ZM47.9824 5.41699C47.9824 6.22428 47.7969 6.8737 47.4258 7.36523C47.0547 7.85352 46.5566 8.09766 45.9316 8.09766C45.2643 8.09766 44.7484 7.86165 44.3838 7.38965L44.3398 8H43.5098V0.5H44.4131V3.29785C44.7777 2.84538 45.2806 2.61914 45.9219 2.61914C46.5632 2.61914 47.0661 2.86165 47.4307 3.34668C47.7985 3.83171 47.9824 4.49577 47.9824 5.33887V5.41699ZM47.0791 5.31445C47.0791 4.69922 46.9603 4.22396 46.7227 3.88867C46.485 3.55339 46.1432 3.38574 45.6973 3.38574C45.1016 3.38574 44.6735 3.66243 44.4131 4.21582V6.50098C44.6898 7.05436 45.1211 7.33105 45.707 7.33105C46.14 7.33105 46.4769 7.16341 46.7178 6.82812C46.9587 6.49284 47.0791 5.98828 47.0791 5.31445ZM50.1064 8H49.2031V0.5H50.1064V8ZM52.5381 8H51.6348V2.7168H52.5381V8ZM51.5615 1.31543C51.5615 1.16895 51.6055 1.04525 51.6934 0.944336C51.7845 0.843424 51.918 0.792969 52.0938 0.792969C52.2695 0.792969 52.403 0.843424 52.4941 0.944336C52.5853 1.04525 52.6309 1.16895 52.6309 1.31543C52.6309 1.46191 52.5853 1.58398 52.4941 1.68164C52.403 1.7793 52.2695 1.82812 52.0938 1.82812C51.918 1.82812 51.7845 1.7793 51.6934 1.68164C51.6055 1.58398 51.5615 1.46191 51.5615 1.31543ZM56.1074 7.36035C56.4297 7.36035 56.7113 7.2627 56.9521 7.06738C57.193 6.87207 57.3265 6.62793 57.3525 6.33496H58.207C58.1908 6.6377 58.0866 6.92578 57.8945 7.19922C57.7025 7.47266 57.4453 7.69076 57.123 7.85352C56.804 8.01628 56.4655 8.09766 56.1074 8.09766C55.388 8.09766 54.8151 7.8584 54.3887 7.37988C53.9655 6.89811 53.7539 6.24056 53.7539 5.40723V5.25586C53.7539 4.74154 53.8483 4.28418 54.0371 3.88379C54.2259 3.4834 54.4961 3.17253 54.8477 2.95117C55.2025 2.72982 55.6208 2.61914 56.1025 2.61914C56.695 2.61914 57.1865 2.79655 57.5771 3.15137C57.971 3.50618 58.181 3.9668 58.207 4.5332H57.3525C57.3265 4.19141 57.1963 3.91146 56.9619 3.69336C56.7308 3.47201 56.4443 3.36133 56.1025 3.36133C55.6436 3.36133 55.2871 3.52734 55.0332 3.85938C54.7826 4.18815 54.6572 4.66504 54.6572 5.29004V5.46094C54.6572 6.06966 54.7826 6.53841 55.0332 6.86719C55.2839 7.19596 55.6419 7.36035 56.1074 7.36035Z" fill="#A8D8EC"/>
<path d="M6.29395 20.6748C6.29395 21.3714 6.17676 21.9801 5.94238 22.501C5.70801 23.0186 5.37598 23.4141 4.94629 23.6875C4.5166 23.9609 4.0153 24.0977 3.44238 24.0977C2.88249 24.0977 2.38607 23.9609 1.95312 23.6875C1.52018 23.4108 1.18327 23.0186 0.942383 22.5107C0.704753 21.9997 0.582682 21.4089 0.576172 20.7383V20.2256C0.576172 19.542 0.694987 18.9382 0.932617 18.4141C1.17025 17.89 1.50553 17.4896 1.93848 17.2129C2.37467 16.9329 2.87272 16.793 3.43262 16.793C4.00228 16.793 4.50358 16.9313 4.93652 17.208C5.37272 17.4814 5.70801 17.8802 5.94238 18.4043C6.17676 18.9251 6.29395 19.5322 6.29395 20.2256V20.6748ZM5.36133 20.2158C5.36133 19.3727 5.19206 18.7266 4.85352 18.2773C4.51497 17.8249 4.04134 17.5986 3.43262 17.5986C2.84017 17.5986 2.37305 17.8249 2.03125 18.2773C1.69271 18.7266 1.51855 19.3516 1.50879 20.1523V20.6748C1.50879 21.4919 1.67969 22.1348 2.02148 22.6035C2.36654 23.069 2.84017 23.3018 3.44238 23.3018C4.04785 23.3018 4.5166 23.082 4.84863 22.6426C5.18066 22.1999 5.35156 21.5667 5.36133 20.7432V20.2158ZM13.1641 24H12.2217L8.64258 18.5215V24H7.7002V16.8906H8.64258L12.2314 22.3936V16.8906H13.1641V24ZM15.7715 23.2334H19.1406V24H14.8291V16.8906H15.7715V23.2334ZM21.2061 20.46L23.0615 16.8906H24.126L21.6748 21.3486V24H20.7373V21.3486L18.2861 16.8906H19.3604L21.2061 20.46ZM28.6084 17.4375V18.7168H29.5947V19.415H28.6084V22.6914C28.6084 22.903 28.6523 23.0625 28.7402 23.1699C28.8281 23.2741 28.9779 23.3262 29.1895 23.3262C29.2936 23.3262 29.4368 23.3066 29.6191 23.2676V24C29.3815 24.0651 29.1504 24.0977 28.9258 24.0977C28.5221 24.0977 28.2178 23.9756 28.0127 23.7314C27.8076 23.4873 27.7051 23.1406 27.7051 22.6914V19.415H26.7432V18.7168H27.7051V17.4375H28.6084ZM30.3174 21.3096C30.3174 20.792 30.4183 20.3265 30.6201 19.9131C30.8252 19.4997 31.1084 19.1807 31.4697 18.9561C31.8343 18.7314 32.2493 18.6191 32.7148 18.6191C33.4342 18.6191 34.0153 18.8682 34.458 19.3662C34.904 19.8643 35.127 20.5267 35.127 21.3535V21.417C35.127 21.9313 35.0277 22.3936 34.8291 22.8037C34.6338 23.2106 34.3522 23.528 33.9844 23.7559C33.6198 23.9837 33.1999 24.0977 32.7246 24.0977C32.0085 24.0977 31.4274 23.8486 30.9814 23.3506C30.5387 22.8525 30.3174 22.1934 30.3174 21.373V21.3096ZM31.2256 21.417C31.2256 22.0029 31.3607 22.4733 31.6309 22.8281C31.9043 23.1829 32.2689 23.3604 32.7246 23.3604C33.1836 23.3604 33.5482 23.1813 33.8184 22.8232C34.0885 22.4619 34.2236 21.9574 34.2236 21.3096C34.2236 20.7301 34.0853 20.2614 33.8086 19.9033C33.5352 19.542 33.1706 19.3613 32.7148 19.3613C32.2689 19.3613 31.9092 19.5387 31.6357 19.8936C31.3623 20.2484 31.2256 20.7562 31.2256 21.417ZM39.5898 18.7168L39.6143 19.3027C40.0016 18.847 40.5241 18.6191 41.1816 18.6191C41.9206 18.6191 42.4235 18.9023 42.6904 19.4688C42.8662 19.2148 43.0941 19.0098 43.374 18.8535C43.6572 18.6973 43.9909 18.6191 44.375 18.6191C45.5339 18.6191 46.123 19.2327 46.1426 20.46V24H45.2393V20.5137C45.2393 20.1361 45.153 19.8545 44.9805 19.6689C44.8079 19.4801 44.5182 19.3857 44.1113 19.3857C43.776 19.3857 43.4977 19.4867 43.2764 19.6885C43.055 19.887 42.9264 20.1556 42.8906 20.4941V24H41.9824V20.5381C41.9824 19.7699 41.6064 19.3857 40.8545 19.3857C40.262 19.3857 39.8568 19.638 39.6387 20.1426V24H38.7354V18.7168H39.5898ZM50.7715 24C50.7194 23.8958 50.6771 23.7103 50.6445 23.4434C50.2246 23.8796 49.7233 24.0977 49.1406 24.0977C48.6198 24.0977 48.1917 23.9512 47.8564 23.6582C47.5244 23.362 47.3584 22.9876 47.3584 22.5352C47.3584 21.985 47.5667 21.5586 47.9834 21.2559C48.4033 20.9499 48.9925 20.7969 49.751 20.7969H50.6299V20.3818C50.6299 20.0661 50.5355 19.8154 50.3467 19.6299C50.1579 19.4411 49.8796 19.3467 49.5117 19.3467C49.1895 19.3467 48.9193 19.4281 48.7012 19.5908C48.4831 19.7536 48.374 19.9505 48.374 20.1816H47.4658C47.4658 19.918 47.5586 19.6641 47.7441 19.4199C47.9329 19.1725 48.1868 18.9772 48.5059 18.834C48.8281 18.6908 49.1813 18.6191 49.5654 18.6191C50.1742 18.6191 50.651 18.7721 50.9961 19.0781C51.3411 19.3809 51.5202 19.7992 51.5332 20.333V22.7646C51.5332 23.2497 51.5951 23.6354 51.7188 23.9219V24H50.7715ZM49.2725 23.3115C49.5557 23.3115 49.8242 23.2383 50.0781 23.0918C50.332 22.9453 50.516 22.7549 50.6299 22.5205V21.4365H49.9219C48.8151 21.4365 48.2617 21.7604 48.2617 22.4082C48.2617 22.6914 48.3561 22.9128 48.5449 23.0723C48.7337 23.2318 48.9762 23.3115 49.2725 23.3115ZM54.1748 17.4375V18.7168H55.1611V19.415H54.1748V22.6914C54.1748 22.903 54.2188 23.0625 54.3066 23.1699C54.3945 23.2741 54.5443 23.3262 54.7559 23.3262C54.86 23.3262 55.0033 23.3066 55.1855 23.2676V24C54.9479 24.0651 54.7168 24.0977 54.4922 24.0977C54.0885 24.0977 53.7842 23.9756 53.5791 23.7314C53.374 23.4873 53.2715 23.1406 53.2715 22.6914V19.415H52.3096V18.7168H53.2715V17.4375H54.1748ZM58.3398 23.3604C58.6621 23.3604 58.9437 23.2627 59.1846 23.0674C59.4255 22.8721 59.5589 22.6279 59.585 22.335H60.4395C60.4232 22.6377 60.319 22.9258 60.127 23.1992C59.9349 23.4727 59.6777 23.6908 59.3555 23.8535C59.0365 24.0163 58.6979 24.0977 58.3398 24.0977C57.6204 24.0977 57.0475 23.8584 56.6211 23.3799C56.1979 22.8981 55.9863 22.2406 55.9863 21.4072V21.2559C55.9863 20.7415 56.0807 20.2842 56.2695 19.8838C56.4583 19.4834 56.7285 19.1725 57.0801 18.9512C57.4349 18.7298 57.8532 18.6191 58.335 18.6191C58.9274 18.6191 59.4189 18.7965 59.8096 19.1514C60.2035 19.5062 60.4134 19.9668 60.4395 20.5332H59.585C59.5589 20.1914 59.4287 19.9115 59.1943 19.6934C58.9632 19.472 58.6768 19.3613 58.335 19.3613C57.876 19.3613 57.5195 19.5273 57.2656 19.8594C57.015 20.1882 56.8896 20.665 56.8896 21.29V21.4609C56.8896 22.0697 57.015 22.5384 57.2656 22.8672C57.5163 23.196 57.8743 23.3604 58.3398 23.3604ZM62.3584 19.3564C62.7588 18.8649 63.2796 18.6191 63.9209 18.6191C65.0374 18.6191 65.6006 19.249 65.6104 20.5088V24H64.707V20.5039C64.7038 20.123 64.6159 19.8415 64.4434 19.6592C64.2741 19.4769 64.0088 19.3857 63.6475 19.3857C63.3545 19.3857 63.0973 19.4639 62.876 19.6201C62.6546 19.7764 62.4821 19.9814 62.3584 20.2354V24H61.4551V16.5H62.3584V19.3564ZM69.1553 24.0977C68.4391 24.0977 67.8564 23.8633 67.4072 23.3945C66.958 22.9225 66.7334 22.2926 66.7334 21.5049V21.3389C66.7334 20.8148 66.8327 20.3477 67.0312 19.9375C67.2331 19.5241 67.513 19.2018 67.8711 18.9707C68.2324 18.7363 68.623 18.6191 69.043 18.6191C69.7298 18.6191 70.2637 18.8454 70.6445 19.2979C71.0254 19.7503 71.2158 20.3981 71.2158 21.2412V21.6172H67.6367C67.6497 22.138 67.8011 22.5596 68.0908 22.8818C68.3838 23.2008 68.7549 23.3604 69.2041 23.3604C69.5231 23.3604 69.7933 23.2952 70.0146 23.165C70.236 23.0348 70.4297 22.8623 70.5957 22.6475L71.1475 23.0771C70.7048 23.7575 70.0407 24.0977 69.1553 24.0977ZM69.043 19.3613C68.6784 19.3613 68.3724 19.4948 68.125 19.7617C67.8776 20.0254 67.7246 20.3965 67.666 20.875H70.3125V20.8066C70.2865 20.3477 70.1628 19.9928 69.9414 19.7422C69.7201 19.4883 69.4206 19.3613 69.043 19.3613ZM75.3418 22.5986C75.3418 22.3545 75.249 22.1657 75.0635 22.0322C74.8812 21.8955 74.5605 21.7783 74.1016 21.6807C73.6458 21.583 73.2829 21.4658 73.0127 21.3291C72.7458 21.1924 72.5472 21.0296 72.417 20.8408C72.29 20.652 72.2266 20.4274 72.2266 20.167C72.2266 19.734 72.4089 19.3678 72.7734 19.0684C73.1413 18.7689 73.61 18.6191 74.1797 18.6191C74.7786 18.6191 75.2637 18.7738 75.6348 19.083C76.0091 19.3923 76.1963 19.7878 76.1963 20.2695H75.2881C75.2881 20.0221 75.1823 19.8089 74.9707 19.6299C74.7624 19.4508 74.4987 19.3613 74.1797 19.3613C73.8509 19.3613 73.5938 19.4329 73.4082 19.5762C73.2227 19.7194 73.1299 19.9066 73.1299 20.1377C73.1299 20.3558 73.2161 20.5202 73.3887 20.6309C73.5612 20.7415 73.8721 20.8473 74.3213 20.9482C74.7738 21.0492 75.14 21.1696 75.4199 21.3096C75.6999 21.4495 75.9066 21.6188 76.04 21.8174C76.1768 22.0127 76.2451 22.252 76.2451 22.5352C76.2451 23.0072 76.0563 23.3864 75.6787 23.6729C75.3011 23.9561 74.8112 24.0977 74.209 24.0977C73.7858 24.0977 73.4115 24.0228 73.0859 23.873C72.7604 23.7233 72.5049 23.515 72.3193 23.248C72.137 22.9779 72.0459 22.6865 72.0459 22.374H72.9492C72.9655 22.6768 73.0859 22.9176 73.3105 23.0967C73.5384 23.2725 73.8379 23.3604 74.209 23.3604C74.5508 23.3604 74.8242 23.292 75.0293 23.1553C75.2376 23.0153 75.3418 22.8298 75.3418 22.5986Z" fill="#9A9A9A"/>
<rect x="0.5" y="1.5" width="26" height="7.63748" rx="3.81874" fill="white" stroke="#A8D8EC"/>
<rect x="11.5" y="1.5" width="14.75" height="8.06406" rx="4.03203" fill="#A8D8EC" stroke="#A8D8EC"/>
</svg>
