<svg width="375" height="96" viewBox="0 0 375 96" fill="none" xmlns="http://www.w3.org/2000/svg">
<path d="M318.94 -13.8927L338.195 -16.7591L407.105 -16.7591C382.105 165.149 333.598 80.7028 318.94 -13.8927Z" fill="#A8D8EC"/>
<path d="M318.94 -13.8927L228.605 -14.7793C190.84 34.6074 304.105 110.149 333.002 17.2275L318.94 -13.8927Z" fill="#A8D8EC"/>
<path d="M111.865 -13.3874L123.064 -25.5462C107.755 39.5506 216.064 124.454 228.605 -14.7793L111.865 -13.3874Z" fill="#A8D8EC"/>
<path d="M136.305 -15.8393L160.494 -15.4105L224.509 -14.2757C213.997 72.7972 144.542 62.3579 136.305 -15.8393Z" fill="#435BB4"/>
<path d="M136.305 -15.8393L68.5446 -17.0403C35.3308 27.7456 116.605 105.149 143.928 15.1275L136.305 -15.8393Z" fill="#435BB4"/>
<path d="M-40.8632 -18.9798L-60.0677 -19.3201C-69.0517 29.3603 32.6053 212.149 68.5446 -17.0403L-40.8632 -18.9798Z" fill="#435BB4"/>
<path d="M245.262 -27.9821L266.097 -27.122L321.237 -24.8456C316.321 48.9207 256.059 38.6272 245.262 -27.9821Z" fill="#8F43B4"/>
<path d="M245.262 -27.9821L186.897 -30.3916C160.44 6.98008 230.105 78.6493 253.291 -1.51489L245.262 -27.9821Z" fill="#8F43B4"/>
<path d="M92.6586 -34.2822L76.1168 -34.965C70.6946 6.21232 177.43 74.9895 186.897 -30.3916L92.6586 -34.2822Z" fill="#8F43B4"/>
</svg>
