<svg width="375" height="252" viewBox="0 0 375 252" fill="none" xmlns="http://www.w3.org/2000/svg">
<path d="M77.0861 76.0823L-13 -6.28123L98.9972 -7.07514C335.08 3.75166 204.164 157.183 77.0861 76.0823Z" fill="#435BB4"/>
<path d="M77.0861 76.0823L48.6681 158.286C123.677 229.756 149.398 119.861 130.239 97.4959L77.0861 76.0823Z" fill="#435BB4"/>
<path d="M77.0861 76.0823L-13 -6.28123L-11.8871 150.715L48.6681 158.286L77.0861 76.0823Z" fill="#435BB4"/>
<path d="M-11.8871 150.715L-11.2739 237.213C7.97013 271.577 100.773 243.419 48.6681 158.286L-11.8871 150.715Z" fill="#435BB4"/>
<path d="M-11.8871 150.715L-11.5894 192.714L-11.2739 237.213L-11.8871 150.715Z" fill="#435BB4"/>
<path d="M233.1 70.4073L319 -6V89.6158C306.063 291.092 148.235 178.402 233.1 70.4073Z" fill="#A8D8EC"/>
<path d="M233.1 70.4073L148.235 45.6496C73.7188 109.251 187.262 131.875 210.549 115.654L233.1 70.4073Z" fill="#A8D8EC"/>
<path d="M233.1 70.4073L319 -6H156.514L148.235 45.6496L233.1 70.4073Z" fill="#A8D8EC"/>
<path d="M156.514 -6H66.9917C31.2862 10.2205 59.7471 89.6158 148.235 45.6496L156.514 -6Z" fill="#A8D8EC"/>
<path d="M156.514 -6H113.047H66.9917H156.514Z" fill="#A8D8EC"/>
<path d="M306.985 81.5L389.986 -8V104C377.486 340 224.986 208 306.985 81.5Z" fill="#8F43B4"/>
<path d="M306.985 81.5L224.986 52.5C152.986 127 262.696 153.5 285.196 134.5L306.985 81.5Z" fill="#8F43B4"/>
<path d="M306.985 81.5L389.986 -8H232.986L224.986 52.5L306.985 81.5Z" fill="#8F43B4"/>
<path d="M232.986 -8H146.486C111.986 11 139.485 104 224.986 52.5L232.986 -8Z" fill="#8F43B4"/>
<path d="M232.986 -8H190.986H146.486H232.986Z" fill="#8F43B4"/>
</svg>
